<svg width="168" height="50" viewBox="0 0 168 50" fill="none" xmlns="http://www.w3.org/2000/svg">
<g clip-path="url(#clip0_102_627)">
<path d="M163.8 0H4.2C1.8804 0 0 1.86548 0 4.16667V45.8333C0 48.1345 1.8804 50 4.2 50H163.8C166.12 50 168 48.1345 168 45.8333V4.16667C168 1.86548 166.12 0 163.8 0Z" fill="#151515"/>
<path d="M34.944 20.293L16.2862 10.0707C15.757 9.78325 15.2698 9.7138 14.875 9.8388L30.156 25.061L34.944 20.2902" fill="url(#paint0_linear_102_627)"/>
<path fill-rule="evenodd" clip-rule="evenodd" d="M34.9678 29.8583L41.3378 26.3694C42.6286 25.6583 42.6286 24.5028 41.3378 23.7944L34.944 20.2944L30.156 25.0639L34.9678 29.8583Z" fill="url(#paint1_linear_102_627)"/>
<path d="M14.875 9.83887C14.3052 10.0139 13.937 10.5889 13.937 11.45L13.9426 38.7083C13.9426 39.5639 14.2982 40.1278 14.8498 40.3166L30.156 25.0639L14.875 9.83887Z" fill="url(#paint2_linear_102_627)"/>
<path d="M14.8499 40.3194C15.2475 40.4528 15.7459 40.3889 16.2863 40.0944L34.9651 29.8583L30.1561 25.0667L14.8499 40.3194Z" fill="url(#paint3_linear_102_627)"/>
<path fill-rule="evenodd" clip-rule="evenodd" d="M57.3607 8.44043C58.5367 8.44043 59.3515 8.96543 59.8807 9.50293L59.0547 10.4238C58.6291 10.014 58.1629 9.7321 57.3747 9.7321C55.8739 9.7321 54.8659 10.8849 54.8659 12.7654C54.8659 14.6738 55.7703 15.8265 57.4643 15.8265C57.9305 15.8265 58.3953 15.6988 58.6683 15.4543V13.6488H57.0751V12.4349H60.0109V16.121C59.4299 16.6585 58.4345 17.1182 57.2837 17.1182C55.0325 17.1182 53.3259 15.5835 53.3259 12.8057C53.3259 10.0654 55.0843 8.44043 57.3579 8.44043M65.5731 13.264C65.5731 12.2668 65.1489 11.6668 64.2823 11.6668C63.5319 11.6668 62.8851 12.2154 62.7563 13.264H65.5731ZM64.2431 10.5279C65.9623 10.5279 66.8681 11.7543 66.8681 13.5071C66.8681 13.7904 66.8401 14.0446 66.8037 14.1988H62.7689C62.8949 15.3377 63.6229 15.9793 64.6449 15.9793C65.1853 15.9793 65.6501 15.8127 66.1149 15.5182L66.6189 16.439C66.0127 16.8349 65.2511 17.1168 64.4489 17.1168C62.6891 17.1168 61.3199 15.9015 61.3199 13.8279C61.3213 11.7779 62.7563 10.5279 64.2431 10.5279ZM68.3171 11.8446H67.4141V10.7446L68.3969 10.6807L68.5789 8.96404H69.8193V10.6807H71.4349V11.8446H69.8193V14.839C69.8193 15.5807 70.1021 15.939 70.7111 15.939C70.9309 15.939 71.1899 15.8752 71.3691 15.8002L71.6295 16.8863C71.2795 17.0015 70.8399 17.1168 70.3359 17.1168C68.8617 17.1168 68.3199 16.1946 68.3199 14.839V11.8446H68.3171Z" fill="#E7E7E7"/>
<mask id="mask0_102_627" style="mask-type:luminance" maskUnits="userSpaceOnUse" x="51" y="7" width="106" height="39">
<path d="M51.5032 7.90283H156.422V45.1251H51.5032V7.90283Z" fill="#E7E7E7"/>
</mask>
<g mask="url(#mask0_102_627)">
<path fill-rule="evenodd" clip-rule="evenodd" d="M75.4208 10.6806H76.9076V16.9639H75.4208V10.6806ZM75.2528 8.74728C75.2528 8.24728 75.6406 7.90283 76.1698 7.90283C76.7018 7.90283 77.0868 8.25005 77.0868 8.74728C77.0868 9.23339 76.7004 9.58061 76.1684 9.58061C75.6364 9.58061 75.25 9.23339 75.25 8.74728H75.2528ZM79.03 11.8445H78.1242V10.7445L79.1084 10.6806L79.2904 8.96394H80.5308V10.6806H82.1464V11.8445H80.5308V14.8389C80.5308 15.5806 80.8136 15.9389 81.4226 15.9389C81.6438 15.9389 81.9014 15.8751 82.0834 15.8001L82.3424 16.8862C81.9924 17.0014 81.5528 17.1167 81.0488 17.1167C79.5746 17.1167 79.0328 16.1945 79.0328 14.8389V11.8445H79.03ZM88.7292 15.9139C89.6616 15.9139 90.23 15.0806 90.23 13.8278C90.23 12.5612 89.6616 11.7306 88.7292 11.7306C87.7982 11.7306 87.2452 12.5612 87.2452 13.8278C87.2452 15.082 87.7982 15.9139 88.7292 15.9139ZM88.7292 10.5251C90.3196 10.5251 91.756 11.7292 91.756 13.8278C91.756 15.9139 90.3196 17.1195 88.7292 17.1195C87.1514 17.1195 85.7192 15.9139 85.7192 13.8278C85.7192 11.7306 87.1514 10.5264 88.7292 10.5264M93.233 10.6806H94.4608L94.5644 11.5251H94.6148C95.1846 10.9751 95.8328 10.5251 96.698 10.5251C98.056 10.5251 98.6496 11.4348 98.6496 13.0223V16.9639H97.1628V13.2139C97.1628 12.1764 96.8688 11.7945 96.1688 11.7945C95.6116 11.7945 95.2504 12.0612 94.7184 12.5723V16.9639H93.2344V10.6806H93.233Z" fill="#E7E7E7"/>
</g>
<mask id="mask1_102_627" style="mask-type:luminance" maskUnits="userSpaceOnUse" x="51" y="7" width="106" height="39">
<path d="M51.5032 7.90283H156.422V45.1251H51.5032V7.90283Z" fill="white"/>
</mask>
<g mask="url(#mask1_102_627)">
<path fill-rule="evenodd" clip-rule="evenodd" d="M127.498 29.7529C126.442 29.7529 125.678 30.0445 125.206 30.6237C124.734 31.2015 124.492 32.1237 124.478 33.3876V33.7348C124.478 35.1709 124.72 36.1987 125.206 36.8209C125.689 37.4404 126.466 37.7515 127.537 37.7515C128.43 37.7515 129.133 37.3904 129.637 36.6751C130.145 35.9612 130.397 34.9723 130.397 33.714C130.397 32.439 130.145 31.4584 129.636 30.7765C129.132 30.0932 128.418 29.7515 127.497 29.7515M127.725 39.0473C127.05 39.0473 126.437 38.9251 125.88 38.6793C125.32 38.4311 124.836 38.0394 124.48 37.5445H124.363C124.44 38.1418 124.478 38.7084 124.478 39.2432V43.457H122.913V28.6251H124.187L124.403 30.0251H124.478C124.881 29.464 125.349 29.0626 125.887 28.8112C126.464 28.5544 127.092 28.4273 127.725 28.439C129.097 28.439 130.155 28.9015 130.903 29.8279C131.645 30.7557 132.017 32.0598 132.017 33.7348C132.017 35.4154 131.639 36.7209 130.883 37.6515C130.123 38.582 129.072 39.0473 127.725 39.0473ZM135.646 38.8612H134.078V24.3279H135.646V38.8612ZM141.114 37.7695C142.09 37.7695 142.857 37.5057 143.41 36.9779C143.968 36.4459 144.246 35.7043 144.246 34.7515V33.8307L142.678 33.8945C141.432 33.939 140.536 34.1307 139.987 34.4695C139.436 34.8084 139.161 35.339 139.161 36.0529C139.161 36.6126 139.329 37.039 139.675 37.3307C140.018 37.6251 140.497 37.7695 141.114 37.7695ZM144.651 38.8626L144.343 37.407H144.266C143.748 38.0501 143.234 38.4834 142.72 38.7084C142.209 38.9348 141.568 39.0487 140.802 39.0487C139.776 39.0487 138.972 38.7876 138.39 38.2654C137.808 37.7432 137.516 37.0015 137.516 36.0334C137.516 33.9668 139.185 32.8807 142.528 32.7834L144.283 32.7279V32.089C144.283 31.289 144.108 30.6945 143.758 30.3112C143.408 29.9293 142.848 29.7376 142.082 29.7376C141.221 29.7376 140.248 30.0015 139.16 30.5223L138.677 29.3348C139.187 29.0626 139.745 28.8487 140.351 28.6904C140.948 28.5367 141.563 28.4587 142.18 28.4584C143.412 28.4584 144.325 28.7279 144.92 29.2709C145.513 29.8126 145.811 30.6793 145.811 31.8751V38.8612H144.649L144.651 38.8626ZM146.723 28.6251H148.403L150.668 34.464C151.162 35.7973 151.473 36.7584 151.592 37.3501H151.666C151.75 37.0307 151.918 36.489 152.184 35.7182C152.443 34.9501 153.296 32.5834 154.742 28.6237H156.422L151.98 40.2807C151.537 41.4334 151.024 42.2501 150.434 42.7334C149.846 43.2168 149.124 43.4557 148.27 43.4557C147.791 43.4557 147.318 43.4001 146.853 43.2959V42.0529C147.199 42.1307 147.587 42.1668 148.015 42.1668C149.089 42.1668 149.856 41.5668 150.315 40.3751L150.895 38.9168L146.723 28.6209V28.6251ZM97.7983 35.014C98.2967 34.5195 98.3401 33.839 98.3401 33.4515C98.3401 31.9098 97.4091 29.5112 95.6143 29.5112C95.0515 29.5112 94.4453 29.7918 94.0995 30.2195C93.7313 30.6682 93.6235 31.2473 93.6235 31.8029C93.6235 33.2376 94.4691 35.6168 96.3283 35.6168C96.8767 35.6036 97.4006 35.3888 97.7983 35.014ZM97.1725 39.0834C97.0003 39.0612 96.8925 39.0612 96.6769 39.0612C96.4809 39.0612 95.3119 39.1029 94.4047 39.4084C93.9287 39.5751 92.5427 40.0918 92.5427 41.6098C92.5427 43.1279 94.0379 44.2209 96.3507 44.2209C98.4283 44.2209 99.5315 43.2376 99.5315 41.9098C99.5315 40.8154 98.8175 40.239 97.1739 39.0834H97.1725ZM98.7083 29.5765C99.2081 29.982 100.244 30.8404 100.244 32.4654C100.244 34.0515 99.3341 34.8015 98.4283 35.507C98.1483 35.782 97.8207 36.0876 97.8207 36.5584C97.8207 37.0279 98.1469 37.2848 98.3849 37.4779L99.1647 38.0751C100.117 38.8709 100.981 39.5973 100.981 41.0751C100.981 43.089 99.0093 45.1237 95.2909 45.1237C92.1549 45.1237 90.6429 43.6432 90.6429 42.0598C90.6429 41.2876 91.0279 40.1987 92.3089 39.4459C93.6473 38.632 95.4659 38.5265 96.4389 38.4598C96.1337 38.0765 95.7893 37.6682 95.7893 37.0084C95.7893 36.6404 95.8971 36.4251 96.0049 36.1682C95.7669 36.1904 95.5289 36.2098 95.3119 36.2098C93.0215 36.2098 91.7237 34.5182 91.7237 32.8487C91.7237 31.8654 92.1773 30.7723 93.1069 29.9807C94.3389 28.9751 95.8089 28.8029 96.9807 28.8029H101.437L100.051 29.5737H98.7097L98.7083 29.5765ZM87.7883 37.0098C88.3063 36.3265 88.4365 35.4682 88.4365 34.6348C88.4365 32.7543 87.5335 29.1626 84.8525 29.1626C84.1413 29.1626 83.4287 29.4404 82.9107 29.8904C82.0707 30.6404 81.9167 31.5807 81.9167 32.5015C81.9167 34.6168 82.9751 38.1015 85.5889 38.1015C86.4289 38.1015 87.2969 37.6945 87.7897 37.0112M85.0919 38.7445C81.6591 38.7445 79.8237 36.0918 79.8237 33.6959C79.8237 30.8973 82.1337 28.5015 85.4167 28.5015C88.5905 28.5015 90.5785 30.9598 90.5785 33.5487C90.5785 36.0709 88.6129 38.7432 85.0905 38.7432M76.0843 37.0098C76.6023 36.3265 76.7311 35.4682 76.7311 34.6348C76.7311 32.7543 75.8239 29.1626 73.1471 29.1626C72.4331 29.1626 71.7191 29.4404 71.2039 29.8904C70.3583 30.6404 70.2099 31.5807 70.2099 32.5015C70.2099 34.6168 71.2669 38.1015 73.8807 38.1015C74.7235 38.1015 75.5859 37.6945 76.0843 37.0112M73.3851 38.7445C69.9495 38.7445 68.1127 36.0918 68.1127 33.6959C68.1127 30.8973 70.4255 28.5015 73.7085 28.5015C76.8837 28.5015 78.8703 30.9598 78.8703 33.5487C78.8703 36.0709 76.9061 38.7432 73.3865 38.7432M66.4621 38.407L63.3597 39.1154C62.0955 39.3098 60.9657 39.4793 59.7757 39.4793C53.7837 39.4793 51.5017 35.1182 51.5017 31.7015C51.5017 27.5307 54.7357 23.6626 60.2741 23.6626C61.3963 23.6646 62.5133 23.8159 63.5949 24.1126C65.2245 24.5654 65.9847 25.1237 66.4607 25.4459L64.6589 27.1432L63.9001 27.3154L64.4433 26.4543C63.7041 25.7459 62.3573 24.4348 59.7953 24.4348C56.3653 24.4348 53.7823 27.0182 53.7823 30.7779C53.7823 34.8168 56.7321 38.6223 61.4655 38.6223C62.8571 38.6223 63.5725 38.3404 64.2235 38.0834V34.6251L60.9475 34.7959L62.6835 33.8682H67.2867L66.7211 34.4098C66.5671 34.5376 66.5461 34.5793 66.5041 34.7529C66.4817 34.9445 66.4593 35.5695 66.4593 35.7807V38.4057L66.4621 38.407Z" fill="white"/>
</g>
<mask id="mask2_102_627" style="mask-type:luminance" maskUnits="userSpaceOnUse" x="51" y="7" width="106" height="39">
<path d="M51.5032 7.90283H156.422V45.1251H51.5032V7.90283Z" fill="white"/>
</mask>
<g mask="url(#mask2_102_627)">
<path fill-rule="evenodd" clip-rule="evenodd" d="M105.571 37.7874C104.854 37.7222 104.703 37.5958 104.703 36.7541V24.5902L104.717 24.4513C104.804 23.6986 105.019 23.5708 105.697 23.1819H102.589L100.959 23.9597H102.618V37.2263C102.618 37.6569 102.534 37.7222 102.033 38.3652H105.876L106.681 37.8972C106.312 37.8499 105.942 37.8305 105.572 37.786M112.379 31.6208C112.789 31.4736 113.004 31.343 113.004 31.0472C113.004 30.1944 112.033 29.2111 110.869 29.2111C110.005 29.2111 108.391 29.8736 108.391 32.1791C108.391 32.5402 108.433 32.9249 108.456 33.3083L112.376 31.6194L112.379 31.6208ZM114.409 37.9847C114.171 38.1097 113.933 38.2624 113.698 38.3666C112.984 38.6902 112.25 38.7736 111.602 38.7736C110.916 38.7736 109.835 38.7291 108.736 37.9402C107.205 36.8736 106.538 35.0374 106.538 33.4361C106.538 30.1263 109.257 28.5055 111.476 28.5055C112.252 28.5055 113.05 28.6999 113.699 29.1027C114.775 29.8069 115.055 30.7236 115.206 31.2166L110.141 33.2444L108.479 33.3736C109.018 36.0819 110.873 37.6624 112.921 37.6624C114.021 37.6624 114.819 37.2777 115.553 36.9166L114.411 37.9861L114.409 37.9847ZM116.488 28.6527V30.061H116.315V28.6527H115.844V28.5069H116.96V28.6527H116.488ZM118.427 30.061V28.6388H118.423L117.982 30.061H117.846L117.404 28.6402H117.4V30.0624H117.24V28.5069H117.51L117.911 29.7652H117.913L118.308 28.5083H118.58V30.0638H118.426L118.427 30.061Z" fill="white"/>
</g>
</g>
<defs>
<linearGradient id="paint0_linear_102_627" x1="400.501" y1="-527.48" x2="1017.43" y2="1554.25" gradientUnits="userSpaceOnUse">
<stop stop-color="#19A3B4"/>
<stop offset="0.34817" stop-color="#5BC3AF"/>
<stop offset="0.92234" stop-color="#C9F7A6"/>
<stop offset="1" stop-color="#D7FEA5"/>
</linearGradient>
<linearGradient id="paint1_linear_102_627" x1="-148.423" y1="-1073.07" x2="561.636" y2="1228.64" gradientUnits="userSpaceOnUse">
<stop stop-color="#FC227C"/>
<stop offset="1" stop-color="#FEEB7B"/>
</linearGradient>
<linearGradient id="paint2_linear_102_627" x1="470.518" y1="-441.659" x2="1511.72" y2="2260.26" gradientUnits="userSpaceOnUse">
<stop stop-color="#0E4DA0"/>
<stop offset="1" stop-color="#6BFED4"/>
</linearGradient>
<linearGradient id="paint3_linear_102_627" x1="2674.98" y1="277.312" x2="738.66" y2="2488.82" gradientUnits="userSpaceOnUse">
<stop stop-color="#FC472E"/>
<stop offset="0.00332" stop-color="#FC472E"/>
<stop offset="1" stop-color="#893CD8"/>
</linearGradient>
<clipPath id="clip0_102_627">
<rect width="168" height="50" fill="white"/>
</clipPath>
</defs>
</svg>
